<svg width="23" height="23" viewBox="0 0 23 23" fill="none" xmlns="http://www.w3.org/2000/svg">
<g id="alcoholic icon">
<circle id="Ellipse 7" cx="11.5" cy="11.5" r="11.5" fill="#BA5F5F"/>
<path id="Vector" d="M18.2837 15.1276C18.1122 14.711 17.6343 14.5129 17.2178 14.6865L16.7665 14.8744L15.9763 12.7937C16.9544 12.079 17.2995 10.7456 16.6808 9.67363L14.9125 6.60056C14.7491 6.31674 14.4 6.19831 14.0957 6.32286L11.7618 7.29073L9.42794 6.32286C9.12369 6.19627 8.77453 6.31674 8.61118 6.60056L6.84289 9.67363C6.22623 10.7456 6.56927 12.079 7.54734 12.7916L6.75713 14.8723L6.30587 14.6845C5.88932 14.5109 5.41356 14.709 5.23999 15.1255C5.20528 15.2092 5.24408 15.3052 5.3278 15.3399L8.6418 16.7162C8.72552 16.7509 8.81945 16.7121 8.85416 16.6284C9.02568 16.2118 8.82966 15.734 8.41311 15.5604L7.96185 15.3726L8.76636 13.2572C8.8562 13.2674 8.94605 13.2837 9.03385 13.2837C10.0895 13.2837 11.0635 12.6078 11.3494 11.542L11.7618 10.0024L12.1743 11.542C12.4602 12.6078 13.4342 13.2837 14.4898 13.2837C14.5776 13.2837 14.6675 13.2674 14.7573 13.2572L15.5598 15.3726L15.1085 15.5604C14.692 15.734 14.4939 16.2118 14.6675 16.6284C14.7022 16.7121 14.7981 16.7509 14.8798 16.7162L18.1959 15.3399C18.2775 15.3052 18.3184 15.2113 18.2837 15.1276ZM10.8614 9.58378L8.57238 8.6343L9.31768 7.33973L11.2473 8.14016L10.8614 9.58378ZM12.6623 9.58378L12.2764 8.14016L14.206 7.33973L14.9513 8.6343L12.6623 9.58378Z" fill="white"/>
</g>
</svg>
