<svg width="14" height="11" viewBox="0 0 14 11" fill="none" xmlns="http://www.w3.org/2000/svg">
<path d="M13.2837 9.12755C13.1122 8.711 12.6343 8.51294 12.2178 8.6865L11.7665 8.87436L10.9763 6.79366C11.9544 6.07899 12.2995 4.74563 11.6808 3.67363L9.91249 0.600564C9.74914 0.316739 9.39997 0.198309 9.09573 0.322865L6.76183 1.29073L4.42794 0.322865C4.12369 0.196267 3.77453 0.316739 3.61118 0.600564L1.84289 3.67363C1.22623 4.74563 1.56927 6.07899 2.54734 6.79162L1.75713 8.87232L1.30587 8.68446C0.889319 8.5109 0.413556 8.70896 0.239994 9.12551C0.205281 9.20923 0.244078 9.3052 0.327796 9.33991L3.6418 10.7162C3.72552 10.7509 3.81945 10.7121 3.85416 10.6284C4.02568 10.2118 3.82966 9.734 3.41311 9.56044L2.96185 9.37258L3.76636 7.25717C3.8562 7.26738 3.94605 7.28371 4.03385 7.28371C5.08951 7.28371 6.0635 6.60784 6.34937 5.54197L6.76183 4.00238L7.1743 5.54197C7.46017 6.60784 8.43415 7.28371 9.48982 7.28371C9.57762 7.28371 9.66746 7.26738 9.75731 7.25717L10.5598 9.37258L10.1085 9.56044C9.69197 9.734 9.4939 10.2118 9.66746 10.6284C9.70217 10.7121 9.79814 10.7509 9.87982 10.7162L13.1959 9.33991C13.2775 9.3052 13.3184 9.21127 13.2837 9.12755ZM5.86135 3.58378L3.57238 2.6343L4.31768 1.33973L6.24727 2.14016L5.86135 3.58378ZM7.66231 3.58378L7.27639 2.14016L9.20599 1.33973L9.95129 2.6343L7.66231 3.58378Z" fill="white"/>
</svg>
