<svg width="31" height="24" viewBox="0 0 31 24" fill="none" xmlns="http://www.w3.org/2000/svg">
<path id="Vector" d="M27.7544 14.0642L30.2387 4.35571C30.4181 3.65474 29.8182 2.98723 29.0088 2.98723H8.36688L7.88518 0.895703C7.76515 0.374384 7.24866 0 6.6495 0H1.26128C0.564684 0 0 0.501528 0 1.12021V1.86702C0 2.4857 0.564684 2.98723 1.26128 2.98723H4.93385L8.6256 19.0172C7.74239 19.4683 7.14723 20.3142 7.14723 21.284C7.14723 22.7276 8.46484 23.8979 10.0902 23.8979C11.7156 23.8979 13.0332 22.7276 13.0332 21.284C13.0332 20.5524 12.6944 19.8915 12.149 19.417H23.1666C22.6214 19.8915 22.2825 20.5524 22.2825 21.284C22.2825 22.7276 23.6002 23.8979 25.2255 23.8979C26.8509 23.8979 28.1685 22.7276 28.1685 21.284C28.1685 20.2491 27.4912 19.3548 26.5089 18.9313L26.7989 17.7983C26.9782 17.0973 26.3783 16.4298 25.569 16.4298H11.4627L11.1188 14.9362H26.5245C27.1134 14.9362 27.6239 14.5742 27.7544 14.0642Z" fill="black"/>
</svg>
