<svg width="18" height="18" viewBox="0 0 18 18" fill="none" xmlns="http://www.w3.org/2000/svg">
<path d="M15.9546 16.6193H14.8182V13.2484C16.7634 12.7914 18.1719 10.9499 17.983 8.81416L17.5299 3.69125C17.5089 3.45424 17.3154 3.27274 17.0836 3.27274H10.7346C10.5031 3.27274 10.3093 3.45424 10.2886 3.69125L9.83516 8.81445C9.64624 10.9502 11.0548 12.7917 13 13.2487V16.6193H11.8636C11.236 16.6193 10.7272 17.1345 10.7272 17.7699C10.7272 17.897 10.8289 18 10.9545 18H16.8637C16.9892 18 17.091 17.897 17.091 17.7699C17.091 17.1345 16.5821 16.6193 15.9546 16.6193ZM11.5724 4.65342H16.2458L16.4495 6.95455H11.3687L11.5724 4.65342Z" fill="#393430"/>
<path d="M8.8781 13.4731L7.76863 13.7189L7.03948 10.4278C8.83976 9.56079 9.81662 7.45822 9.17019 5.41391L7.61966 0.510305C7.54786 0.283447 7.31971 0.148091 7.09338 0.198236L0.894732 1.57157C0.668676 1.62166 0.518771 1.84077 0.549792 2.07667L1.2153 7.17664C1.49283 9.30269 3.26636 10.7959 5.26437 10.8214L5.99346 14.1122L4.88399 14.358C4.27128 14.4937 3.88594 15.1068 4.02339 15.7271C4.05089 15.8512 4.17246 15.9298 4.29506 15.9026L10.0643 14.6244C10.1869 14.5972 10.264 14.4747 10.2365 14.3506C10.099 13.7302 9.49081 13.3373 8.8781 13.4731ZM2.01135 2.73835L6.57407 1.72745L7.2707 3.93005L2.31023 5.02906L2.01135 2.73835Z" fill="#393430"/>
</svg>
