<svg width="14" height="10" viewBox="0 0 14 10" fill="none" xmlns="http://www.w3.org/2000/svg">
<path d="M4.14889 7.50568H8.06935C9.15156 7.50568 10.0296 6.62766 10.0296 5.54545H10.683C12.1246 5.54545 13.2966 4.3734 13.2966 2.93181C13.2966 1.49023 12.1246 0.318176 10.683 0.318176H2.67872C2.40715 0.318176 2.18866 0.53666 2.18866 0.808233V5.54545C2.18866 6.62766 3.06668 7.50568 4.14889 7.50568ZM10.683 1.62499C11.4038 1.62499 11.9898 2.21102 11.9898 2.93181C11.9898 3.6526 11.4038 4.23863 10.683 4.23863H10.0296V1.62499H10.683ZM11.657 9.4659H1.21468C0.24273 9.4659 -0.0308851 8.15909 0.479591 8.15909H12.39C12.9005 8.15909 12.631 9.4659 11.657 9.4659Z" fill="white"/>
</svg>
