<svg width="23" height="23" viewBox="0 0 23 23" fill="none" xmlns="http://www.w3.org/2000/svg">
<g id="non-alcoholic icon">
<circle id="Ellipse 8" cx="11.5" cy="11.5" r="11.5" fill="#B9B1CE"/>
<path id="Vector" d="M9.14889 14.5057H13.0693C14.1516 14.5057 15.0296 13.6277 15.0296 12.5454H15.683C17.1246 12.5454 18.2966 11.3734 18.2966 9.93181C18.2966 8.49023 17.1246 7.31818 15.683 7.31818H7.67872C7.40715 7.31818 7.18866 7.53666 7.18866 7.80823V12.5454C7.18866 13.6277 8.06668 14.5057 9.14889 14.5057ZM15.683 8.62499C16.4038 8.62499 16.9898 9.21102 16.9898 9.93181C16.9898 10.6526 16.4038 11.2386 15.683 11.2386H15.0296V8.62499H15.683ZM16.657 16.4659H6.21468C5.24273 16.4659 4.96911 15.1591 5.47959 15.1591H17.39C17.9005 15.1591 17.631 16.4659 16.657 16.4659Z" fill="white"/>
</g>
</svg>
