<svg width="14" height="12" viewBox="0 0 14 12" fill="none" xmlns="http://www.w3.org/2000/svg">
<path d="M13.0954 0.447903C12.9684 0.164306 12.6054 0.152962 12.4534 0.420678C11.75 1.64355 10.4909 2.40586 9.05246 2.40586H7.23744C4.83253 2.40586 2.88138 4.35701 2.88138 6.76192C2.88138 6.92074 2.89953 7.07274 2.91541 7.22702C4.36289 6.19019 6.45244 5.3099 9.41547 5.3099C9.61512 5.3099 9.77847 5.47325 9.77847 5.67291C9.77847 5.87256 9.61512 6.03591 9.41547 6.03591C3.71175 6.03591 1.29323 9.5321 0.757799 10.8457C0.60806 11.2155 0.785025 11.6375 1.15484 11.7895C1.52692 11.9438 1.94891 11.7646 2.10319 11.397C2.13722 11.3154 2.57736 10.3103 3.73444 9.34153C4.46953 10.3375 5.86709 11.2881 7.70254 11.093C11.2645 10.8344 13.7715 7.63994 13.7715 3.72856C13.7715 2.58963 13.5265 1.40987 13.0954 0.447903Z" fill="white"/>
</svg>
