<svg width="23" height="23" viewBox="0 0 23 23" fill="none" xmlns="http://www.w3.org/2000/svg">
<g id="summer icon">
<circle id="Ellipse 5" cx="11.5" cy="11.5" r="11.5" fill="#E8D594"/>
<path id="Vector" d="M11.7614 8.78834C10.4112 8.78834 9.3111 9.88841 9.3111 11.2386C9.3111 12.5888 10.4112 13.6889 11.7614 13.6889C13.1116 13.6889 14.2117 12.5888 14.2117 11.2386C14.2117 9.88841 13.1116 8.78834 11.7614 8.78834ZM18.0504 10.843L15.6333 9.63573L16.4884 7.07314C16.6032 6.72601 16.274 6.39676 15.9294 6.51417L13.3668 7.36921L12.157 4.94956C11.9937 4.62285 11.5291 4.62285 11.3658 4.94956L10.1585 7.36666L7.59335 6.51161C7.24623 6.39676 6.91697 6.72601 7.03438 7.07058L7.88943 9.63317L5.47232 10.843C5.14562 11.0064 5.14562 11.4709 5.47232 11.6342L7.88943 12.8415L7.03438 15.4067C6.91952 15.7538 7.24878 16.083 7.59335 15.9656L10.1559 15.1106L11.3632 17.5277C11.5266 17.8544 11.9911 17.8544 12.1545 17.5277L13.3617 15.1106L15.9243 15.9656C16.2714 16.0805 16.6007 15.7512 16.4833 15.4067L15.6282 12.8441L18.0453 11.6368C18.3772 11.4709 18.3772 11.0064 18.0504 10.843ZM14.0713 13.5485C12.7977 14.8222 10.7251 14.8222 9.45148 13.5485C8.17785 12.2749 8.17785 10.2024 9.45148 8.92872C10.7251 7.65508 12.7977 7.65508 14.0713 8.92872C15.3449 10.2024 15.3449 12.2749 14.0713 13.5485Z" fill="white"/>
</g>
</svg>
