<svg width="12" height="14" viewBox="0 0 12 14" fill="none" xmlns="http://www.w3.org/2000/svg">
<path d="M11.5117 9.03811L10.649 8.54039L11.3126 8.36173C11.5219 8.30558 11.647 8.08862 11.5908 7.87933L11.4887 7.49902C11.4326 7.28973 11.2156 7.16466 11.0063 7.22081L9.19924 7.70577L7.56827 6.76139L9.19669 5.81956L11.0038 6.30451C11.2131 6.36066 11.43 6.2356 11.4862 6.0263L11.5883 5.646C11.6444 5.4367 11.5194 5.21975 11.3101 5.1636L10.6464 4.98493L11.5091 4.48722C11.698 4.37746 11.7618 4.13754 11.6546 3.94866L11.259 3.26463C11.1493 3.07575 10.9093 3.01194 10.7205 3.11914L9.85775 3.61685L10.0364 2.95324C10.0926 2.74394 9.96751 2.52699 9.75821 2.47084L9.37791 2.36874C9.16861 2.31259 8.95166 2.43766 8.89551 2.64695L8.41055 4.45404L6.80766 5.378V3.3999L8.17829 2.02927C8.33654 1.87103 8.33654 1.61068 8.17829 1.45244L7.88987 1.16402C7.73162 1.00577 7.47128 1.00577 7.31303 1.16402L6.80766 1.66684V0.635676C6.80766 0.411066 6.62389 0.227295 6.39928 0.227295H5.58252C5.35791 0.227295 5.17414 0.411066 5.17414 0.635676V1.66684L4.67132 1.16402C4.51307 1.00577 4.25273 1.00577 4.09448 1.16402L3.80351 1.45244C3.64271 1.61068 3.64271 1.87103 3.80351 2.02927L5.17414 3.3999V5.378L3.57124 4.45404L3.08629 2.64695C3.03014 2.43766 2.81319 2.31259 2.60389 2.36874L2.22359 2.47084C2.01429 2.52699 1.88923 2.74394 1.94538 2.95324L2.12404 3.61685L1.26134 3.11914C1.07246 3.00939 0.832541 3.07575 0.722789 3.26463L0.32717 3.94611C0.217417 4.13499 0.283779 4.37491 0.472655 4.48466L1.33536 4.98238L0.671741 5.16104C0.459893 5.2172 0.334827 5.43415 0.390979 5.646L0.493074 6.0263C0.549227 6.2356 0.766179 6.36066 0.975474 6.30451L2.78256 5.81956L4.41098 6.76139L2.78256 7.70321L0.975474 7.21826C0.766179 7.16211 0.549227 7.28718 0.493074 7.49647L0.390979 7.87678C0.334827 8.08607 0.459893 8.30302 0.669189 8.35918L1.33281 8.53784L0.470103 9.03811C0.281227 9.14786 0.217417 9.38778 0.324617 9.57666L0.720236 10.2607C0.829989 10.4496 1.06991 10.5134 1.25879 10.4062L2.12149 9.90847L1.94283 10.5721C1.88667 10.7814 2.01174 10.9983 2.22104 11.0545L2.60134 11.1566C2.81063 11.2127 3.02759 11.0877 3.08374 10.8784L3.56869 9.07129L5.17159 8.14733V10.1254L3.80096 11.496C3.64016 11.6543 3.64016 11.9146 3.80096 12.0729L4.08938 12.3613C4.24762 12.5196 4.50797 12.5196 4.66621 12.3613L5.16903 11.8585V12.8871C5.16903 13.1117 5.3528 13.2955 5.57741 13.2955H6.39418C6.61878 13.2955 6.80256 13.1117 6.80256 12.8871V11.8559L7.30537 12.3588C7.46362 12.517 7.72397 12.517 7.88221 12.3588L8.17063 12.0703C8.32888 11.9121 8.32888 11.6517 8.17063 11.4935L6.80766 10.1229V8.14478L8.41055 9.06874L8.89551 10.8758C8.95166 11.0851 9.16861 11.2102 9.37791 11.154L9.75821 11.0519C9.96751 10.9958 10.0926 10.7788 10.0364 10.5695L9.85775 9.90592L10.7205 10.4036C10.9093 10.5134 11.1493 10.447 11.259 10.2581L11.6546 9.57411C11.7644 9.38778 11.7006 9.14531 11.5117 9.03811Z" fill="white"/>
</svg>
