<svg width="13" height="14" viewBox="0 0 13 14" fill="none" xmlns="http://www.w3.org/2000/svg">
<path d="M9.95898 9.68126C10.0228 9.61745 12.6441 7.32286 12.6441 7.32286L12.1974 7.13144C11.9422 7.00637 12.0085 6.83791 12.0698 6.68732C12.1311 6.49334 12.5828 4.96957 12.5828 4.96957C12.5828 4.96957 11.3653 5.22481 11.1101 5.28862C10.9187 5.34987 10.8549 5.22481 10.7911 5.09719C10.7273 4.96957 10.4082 4.27022 10.4082 4.27022C10.4082 4.27022 9.06565 5.79909 9.00184 5.86035C8.7466 6.05178 8.48881 5.86035 8.55262 5.60511C8.55262 5.34987 9.25708 2.29723 9.25708 2.29723C9.25708 2.29723 8.48881 2.74134 8.23358 2.86896C8.04215 2.99658 7.91198 2.99658 7.78436 2.74134C7.65419 2.54991 6.69449 0.704544 6.69449 0.704544C6.69449 0.704544 5.73735 2.54991 5.60973 2.74134C5.48211 2.99658 5.35449 2.99658 5.16051 2.86896C4.90527 2.74134 4.13701 2.29723 4.13701 2.29723C4.13701 2.29723 4.84146 5.34987 4.84146 5.60511C4.90527 5.86035 4.65004 6.05178 4.39224 5.86035C4.32844 5.79654 2.98588 4.27022 2.98588 4.27022C2.98588 4.27022 2.66684 4.96702 2.60303 5.09464C2.53922 5.22226 2.47541 5.34732 2.28398 5.28607C2.02619 5.22226 0.811257 4.96702 0.811257 4.96702C0.811257 4.96702 1.26048 6.49079 1.32429 6.68477C1.38554 6.83791 1.4519 7.00382 1.19667 7.12888L0.75 7.32286C0.75 7.32286 3.36874 9.61745 3.4351 9.68126C3.56527 9.80888 3.69034 9.87269 3.56527 10.2555C3.4351 10.6384 3.30748 11.1514 3.30748 11.1514C3.30748 11.1514 5.73735 10.6384 5.99514 10.5746C6.2172 10.5516 6.46222 10.6384 6.46222 10.8936C6.46222 11.1489 6.31419 13.7727 6.31419 13.7727H7.0799C7.0799 13.7727 6.93186 11.1514 6.93186 10.8936C6.93186 10.6359 7.17434 10.5516 7.4015 10.5746C7.65674 10.6384 10.0866 11.1514 10.0866 11.1514C10.0866 11.1514 9.95898 10.6384 9.83136 10.2555C9.70375 9.87269 9.83136 9.80888 9.95898 9.68126Z" fill="white"/>
</svg>
