<svg width="23" height="23" viewBox="0 0 23 23" fill="none" xmlns="http://www.w3.org/2000/svg">
<circle cx="11.5" cy="11.5" r="11.5" fill="#BF9075"/>
<path d="M14.959 13.6813C15.0228 13.6175 17.6441 11.3229 17.6441 11.3229L17.1974 11.1314C16.9422 11.0064 17.0085 10.8379 17.0698 10.6873C17.1311 10.4933 17.5828 8.96957 17.5828 8.96957C17.5828 8.96957 16.3653 9.22481 16.1101 9.28862C15.9187 9.34987 15.8549 9.22481 15.7911 9.09719C15.7273 8.96957 15.4082 8.27022 15.4082 8.27022C15.4082 8.27022 14.0657 9.79909 14.0018 9.86035C13.7466 10.0518 13.4888 9.86035 13.5526 9.60511C13.5526 9.34987 14.2571 6.29723 14.2571 6.29723C14.2571 6.29723 13.4888 6.74134 13.2336 6.86896C13.0421 6.99658 12.912 6.99658 12.7844 6.74134C12.6542 6.54991 11.6945 4.70454 11.6945 4.70454C11.6945 4.70454 10.7373 6.54991 10.6097 6.74134C10.4821 6.99658 10.3545 6.99658 10.1605 6.86896C9.90527 6.74134 9.13701 6.29723 9.13701 6.29723C9.13701 6.29723 9.84146 9.34987 9.84146 9.60511C9.90527 9.86035 9.65004 10.0518 9.39224 9.86035C9.32844 9.79654 7.98588 8.27022 7.98588 8.27022C7.98588 8.27022 7.66684 8.96702 7.60303 9.09464C7.53922 9.22226 7.47541 9.34732 7.28398 9.28607C7.02619 9.22226 5.81126 8.96702 5.81126 8.96702C5.81126 8.96702 6.26048 10.4908 6.32429 10.6848C6.38554 10.8379 6.4519 11.0038 6.19667 11.1289L5.75 11.3229C5.75 11.3229 8.36874 13.6175 8.4351 13.6813C8.56527 13.8089 8.69034 13.8727 8.56527 14.2555C8.4351 14.6384 8.30748 15.1514 8.30748 15.1514C8.30748 15.1514 10.7373 14.6384 10.9951 14.5746C11.2172 14.5516 11.4622 14.6384 11.4622 14.8936C11.4622 15.1489 11.3142 17.7727 11.3142 17.7727H12.0799C12.0799 17.7727 11.9319 15.1514 11.9319 14.8936C11.9319 14.6359 12.1743 14.5516 12.4015 14.5746C12.6567 14.6384 15.0866 15.1514 15.0866 15.1514C15.0866 15.1514 14.959 14.6384 14.8314 14.2555C14.7037 13.8727 14.8314 13.8089 14.959 13.6813Z" fill="white"/>
</svg>
