<svg width="23" height="23" viewBox="0 0 23 23" fill="none" xmlns="http://www.w3.org/2000/svg">
<g id="winter icon">
<circle id="Ellipse 4" cx="11.5" cy="11.5" r="11.5" fill="#8FAFCD"/>
<path id="Vector" d="M17.5117 14.0381L16.649 13.5404L17.3126 13.3617C17.5219 13.3056 17.647 13.0886 17.5908 12.8793L17.4887 12.499C17.4326 12.2897 17.2156 12.1647 17.0063 12.2208L15.1992 12.7058L13.5683 11.7614L15.1967 10.8196L17.0038 11.3045C17.2131 11.3607 17.43 11.2356 17.4862 11.0263L17.5883 10.646C17.6444 10.4367 17.5194 10.2197 17.3101 10.1636L16.6464 9.98493L17.5091 9.48722C17.698 9.37746 17.7618 9.13754 17.6546 8.94866L17.259 8.26463C17.1493 8.07575 16.9093 8.01194 16.7205 8.11914L15.8578 8.61685L16.0364 7.95324C16.0926 7.74394 15.9675 7.52699 15.7582 7.47084L15.3779 7.36874C15.1686 7.31259 14.9517 7.43766 14.8955 7.64695L14.4106 9.45404L12.8077 10.378V8.3999L14.1783 7.02927C14.3365 6.87103 14.3365 6.61068 14.1783 6.45244L13.8899 6.16402C13.7316 6.00577 13.4713 6.00577 13.313 6.16402L12.8077 6.66684V5.63568C12.8077 5.41107 12.6239 5.22729 12.3993 5.22729H11.5825C11.3579 5.22729 11.1741 5.41107 11.1741 5.63568V6.66684L10.6713 6.16402C10.5131 6.00577 10.2527 6.00577 10.0945 6.16402L9.80351 6.45244C9.64271 6.61068 9.64271 6.87103 9.80351 7.02927L11.1741 8.3999V10.378L9.57124 9.45404L9.08629 7.64695C9.03014 7.43766 8.81319 7.31259 8.60389 7.36874L8.22359 7.47084C8.01429 7.52699 7.88923 7.74394 7.94538 7.95324L8.12404 8.61685L7.26134 8.11914C7.07246 8.00939 6.83254 8.07575 6.72279 8.26463L6.32717 8.94611C6.21742 9.13499 6.28378 9.37491 6.47266 9.48466L7.33536 9.98238L6.67174 10.161C6.45989 10.2172 6.33483 10.4341 6.39098 10.646L6.49307 11.0263C6.54923 11.2356 6.76618 11.3607 6.97547 11.3045L8.78256 10.8196L10.411 11.7614L8.78256 12.7032L6.97547 12.2183C6.76618 12.1621 6.54923 12.2872 6.49307 12.4965L6.39098 12.8768C6.33483 13.0861 6.45989 13.303 6.66919 13.3592L7.33281 13.5378L6.4701 14.0381C6.28123 14.1479 6.21742 14.3878 6.32462 14.5767L6.72024 15.2607C6.82999 15.4496 7.06991 15.5134 7.25879 15.4062L8.12149 14.9085L7.94283 15.5721C7.88667 15.7814 8.01174 15.9983 8.22104 16.0545L8.60134 16.1566C8.81063 16.2127 9.02759 16.0877 9.08374 15.8784L9.56869 14.0713L11.1716 13.1473V15.1254L9.80096 16.496C9.64016 16.6543 9.64016 16.9146 9.80096 17.0729L10.0894 17.3613C10.2476 17.5196 10.508 17.5196 10.6662 17.3613L11.169 16.8585V17.8871C11.169 18.1117 11.3528 18.2955 11.5774 18.2955H12.3942C12.6188 18.2955 12.8026 18.1117 12.8026 17.8871V16.8559L13.3054 17.3588C13.4636 17.517 13.724 17.517 13.8822 17.3588L14.1706 17.0703C14.3289 16.9121 14.3289 16.6517 14.1706 16.4935L12.8077 15.1229V13.1448L14.4106 14.0687L14.8955 15.8758C14.9517 16.0851 15.1686 16.2102 15.3779 16.154L15.7582 16.0519C15.9675 15.9958 16.0926 15.7788 16.0364 15.5695L15.8578 14.9059L16.7205 15.4036C16.9093 15.5134 17.1493 15.447 17.259 15.2581L17.6546 14.5741C17.7644 14.3878 17.7006 14.1453 17.5117 14.0381Z" fill="white"/>
</g>
</svg>
