<svg width="23" height="23" viewBox="0 0 23 23" fill="none" xmlns="http://www.w3.org/2000/svg">
<g id="spring icon">
<circle id="Ellipse 6" cx="11.5" cy="11.5" r="11.5" fill="#89AC86"/>
<path id="Vector" d="M17.0954 5.4479C16.9684 5.16431 16.6054 5.15296 16.4534 5.42068C15.75 6.64355 14.4909 7.40586 13.0525 7.40586H11.2374C8.83253 7.40586 6.88138 9.35701 6.88138 11.7619C6.88138 11.9207 6.89953 12.0727 6.91541 12.227C8.36289 11.1902 10.4524 10.3099 13.4155 10.3099C13.6151 10.3099 13.7785 10.4733 13.7785 10.6729C13.7785 10.8726 13.6151 11.0359 13.4155 11.0359C7.71175 11.0359 5.29323 14.5321 4.7578 15.8457C4.60806 16.2155 4.78502 16.6375 5.15484 16.7895C5.52692 16.9438 5.94891 16.7646 6.10319 16.397C6.13722 16.3154 6.57736 15.3103 7.73444 14.3415C8.46953 15.3375 9.86709 16.2881 11.7025 16.093C15.2645 15.8344 17.7715 12.6399 17.7715 8.72856C17.7715 7.58963 17.5265 6.40987 17.0954 5.4479Z" fill="white"/>
</g>
</svg>
