<svg width="14" height="14" viewBox="0 0 14 14" fill="none" xmlns="http://www.w3.org/2000/svg">
<path d="M6.76139 4.78834C5.41118 4.78834 4.3111 5.88841 4.3111 7.23862C4.3111 8.58883 5.41118 9.6889 6.76139 9.6889C8.11159 9.6889 9.21167 8.58883 9.21167 7.23862C9.21167 5.88841 8.11159 4.78834 6.76139 4.78834ZM13.0504 6.843L10.6333 5.63573L11.4884 3.07314C11.6032 2.72601 11.274 2.39676 10.9294 2.51417L8.36683 3.36921L7.157 0.949557C6.99365 0.622853 6.52912 0.622853 6.36577 0.949557L5.15849 3.36666L2.59335 2.51161C2.24623 2.39676 1.91697 2.72601 2.03438 3.07058L2.88943 5.63317L0.472323 6.843C0.145619 7.00635 0.145619 7.47089 0.472323 7.63424L2.88943 8.84151L2.03438 11.4067C1.91952 11.7538 2.24878 12.083 2.59335 11.9656L5.15594 11.1106L6.36321 13.5277C6.52657 13.8544 6.9911 13.8544 7.15445 13.5277L8.36173 11.1106L10.9243 11.9656C11.2714 12.0805 11.6007 11.7512 11.4833 11.4067L10.6282 8.84407L13.0453 7.63679C13.3772 7.47089 13.3772 7.00635 13.0504 6.843ZM9.07129 9.54852C7.79765 10.8222 5.72512 10.8222 4.45148 9.54852C3.17785 8.27489 3.17785 6.20235 4.45148 4.92872C5.72512 3.65508 7.79765 3.65508 9.07129 4.92872C10.3449 6.20235 10.3449 8.27489 9.07129 9.54852Z" fill="white"/>
</svg>
